<?xml version="1.0" encoding="utf-8"?>
<!-- Generator: Adobe Illustrator 15.0.0, SVG Export Plug-In . SVG Version: 6.00 Build 0)  -->
<!DOCTYPE svg PUBLIC "-//W3C//DTD SVG 1.1//EN" "http://www.w3.org/Graphics/SVG/1.1/DTD/svg11.dtd">
<svg version="1.1" id="Layer_1" xmlns="http://www.w3.org/2000/svg" xmlns:xlink="http://www.w3.org/1999/xlink" x="0px" y="0px"
	 width="169.2px" height="54px" viewBox="123.324 46.843 93.665 29.067" enable-background="new 123.324 46.843 93.665 29.067"
	 xml:space="preserve">
<g>
	<g>
		<path fill="#231F20" d="M135.836,51.962v3.774c0,0.483,0.236,0.857,0.504,1.13h-2.507c0.262-0.272,0.491-0.646,0.491-1.13v-7.491
			c0-0.485-0.217-0.886-0.491-1.173h2.507c-0.284,0.287-0.504,0.725-0.504,1.173v3.093h5.163v-3.093
			c0-0.502-0.186-0.886-0.479-1.173h2.469c-0.293,0.287-0.479,0.699-0.479,1.173v7.491c0,0.457,0.205,0.857,0.485,1.13h-2.49
			c0.294-0.272,0.492-0.673,0.492-1.158v-3.746H135.836z"/>
		<path fill="#231F20" d="M151.81,56.866h-6.501c0.281-0.272,0.49-0.656,0.49-1.13v-7.491c0-0.449-0.206-0.886-0.472-1.173h6.712
			l-0.394,1.017c-0.326-0.298-0.65-0.393-1.176-0.393h-3.159v3.638c0.915,0,1.887,0,2.95,0c0.363,0,0.733-0.049,1.14-0.188
			l-0.459,1.114c-0.297-0.272-0.604-0.304-1.143-0.304h-2.487v4.268c0.628,0,0.856,0.006,1.496,0.006c0.302,0,2.62-0.009,3.57-0.686
			L151.81,56.866z"/>
		<path fill="#231F20" d="M206.166,56.866h-6.503c0.279-0.272,0.489-0.656,0.489-1.13v-7.491c0-0.449-0.202-0.886-0.47-1.173h6.709
			l-0.393,1.017c-0.324-0.298-0.648-0.393-1.173-0.393h-3.16v3.638c0.915,0,1.886,0,2.948,0c0.363,0,0.735-0.049,1.141-0.188
			l-0.461,1.114c-0.296-0.272-0.605-0.304-1.142-0.304h-2.487v4.268c0.628,0,0.856,0.006,1.496,0.006
			c0.299,0,2.62-0.009,3.567-0.686L206.166,56.866z"/>
		<path fill="#231F20" d="M160.163,48.233v3.1v0.622v4.268c0.645,0,1.029,0.006,1.669,0.006c0.302,0,2.507-0.035,3.511-0.768
			l-0.598,1.405h-6.587c0.28-0.272,0.489-0.666,0.489-1.139v-7.482c0-0.449-0.203-0.886-0.469-1.173c0.093,0,2.438,0,2.496,0
			C160.399,47.371,160.163,47.806,160.163,48.233z"/>
		<path fill="#231F20" d="M169.083,53.575c-0.17,0.409-0.821,2.175-0.821,2.175c-0.159,0.411-0.155,0.716,0.003,1.116h-1.695
			c0.396-0.41,0.699-0.831,0.844-1.158l3.095-7.522c0.243-0.562-0.07-1.02-0.276-1.114h2.026l3.665,8.665
			c0.142,0.323,0.36,0.729,0.812,1.13h-2.374c0.168-0.392,0.185-0.707,0.01-1.116c0,0-0.83-1.911-0.936-2.175L169.083,53.575
			L169.083,53.575z M173.196,52.948l-1.993-4.674l-1.87,4.674H173.196z"/>
		<path fill="#231F20" d="M186.881,48.245v8.621h-0.435l-7-8.147v7.017c0,0.457,0.209,0.857,0.505,1.13h-1.69
			c0.281-0.272,0.478-0.673,0.478-1.13v-7.431c0-0.423-0.097-0.587-0.369-0.893c-0.141-0.154-0.299-0.271-0.396-0.341h1.967
			l6.239,7.311v-6.137c0-0.485-0.192-0.886-0.465-1.173h1.639C187.065,47.331,186.891,47.76,186.881,48.245z"/>
		<path fill="#231F20" d="M195.993,56.924c-0.569,0.079-0.77,0.115-1.479,0.115c-3.28,0-5.444-2.263-5.444-5.016
			c0-3.068,2.354-5.111,5.468-5.111c0.479,0,0.863,0.024,1.205,0.062c0.443,0.051,0.798,0.114,1.217,0.202l0.44,1.275
			c-0.493-0.471-1.469-0.975-2.864-0.975c-2.554,0-3.762,2.129-3.762,4.537c0,2.488,1.298,4.456,3.856,4.456
			c1.014,0,2.211-0.359,2.918-1.125c-0.303,0.771-0.447,1.16-0.522,1.368C196.738,56.79,196.485,56.855,195.993,56.924z"/>
		<path fill="#231F20" d="M131.617,47.696l-3.233-0.005l0.006,8.281c0,0.433,0.305,0.749,0.503,0.895h-2.499
			c0.237-0.171,0.479-0.447,0.479-0.895l-0.003-8.277h-2.298c-0.409,0-0.883,0.111-1.247,0.3l0.411-0.923h7.031
			c0.543,0,0.927-0.062,1.271-0.229L131.617,47.696z"/>
		<path fill="#231F20" d="M216.57,47.696l-3.234-0.005l0.007,8.281c0,0.433,0.316,0.749,0.513,0.895h-2.489
			c0.237-0.171,0.461-0.447,0.461-0.895l-0.004-8.277h-2.3c-0.406,0-0.88,0.111-1.246,0.3l0.413-0.923h7.029
			c0.543,0,0.926-0.062,1.271-0.229L216.57,47.696z"/>
	</g>
	<g>
		<path fill="#EE3124" d="M124.076,67.103c0-3.071,1.739-5.203,4.137-5.203s4.122,2.131,4.122,5.203s-1.725,5.203-4.122,5.203
			S124.076,70.174,124.076,67.103z M131.034,67.103c0-2.695-1.16-4.341-2.821-4.341c-1.677,0-2.836,1.646-2.836,4.341
			s1.16,4.341,2.836,4.341C129.875,71.444,131.034,69.798,131.034,67.103z"/>
		<path fill="#EE3124" d="M134.265,65.113h1.207v1.034h0.031c0.61-0.689,1.379-1.238,2.414-1.238c0.846,0,1.473,0.376,1.817,0.94
			c0.267,0.423,0.393,0.94,0.393,1.677v4.607h-1.207v-4.435c0-0.548-0.062-0.893-0.219-1.159c-0.268-0.486-0.722-0.674-1.238-0.674
			c-0.721,0-1.474,0.454-1.99,1.003v5.265h-1.207L134.265,65.113L134.265,65.113z"/>
		<path fill="#EE3124" d="M145.142,72.306c-2.021,0-3.479-1.238-3.479-3.495c0-2.351,1.458-3.902,3.557-3.902
			c0.423,0,0.925,0.078,1.316,0.188v1.019c-0.658-0.172-1.301-0.235-1.818-0.235c-0.454,0-0.877,0.078-1.034,0.125
			c-0.47,0.486-0.783,1.52-0.783,2.382c0,2.225,1.081,3.024,2.523,3.024c0.423,0,0.909-0.063,1.285-0.172v0.799
			C146.27,72.211,145.612,72.306,145.142,72.306z"/>
		<path fill="#EE3124" d="M147.619,68.607c0-2.116,1.362-3.698,3.447-3.698c2.131,0,3.416,1.583,3.416,3.698
			c0,2.115-1.362,3.698-3.446,3.698C148.919,72.306,147.619,70.723,147.619,68.607z M153.245,68.607
			c0-1.818-0.894-2.915-2.194-2.915c-1.332,0-2.194,1.097-2.194,2.915s0.894,2.915,2.194,2.915
			C152.383,71.522,153.245,70.425,153.245,68.607z"/>
		<path fill="#EE3124" d="M156.099,61.039h1.191v11.095h-1.191V61.039z"/>
		<path fill="#EE3124" d="M158.904,68.607c0-2.116,1.363-3.698,3.448-3.698c2.131,0,3.416,1.583,3.416,3.698
			c0,2.115-1.363,3.698-3.447,3.698C160.205,72.306,158.904,70.723,158.904,68.607z M164.53,68.607c0-1.818-0.894-2.915-2.193-2.915
			c-1.332,0-2.194,1.097-2.194,2.915s0.894,2.915,2.194,2.915C163.668,71.522,164.53,70.425,164.53,68.607z"/>
		<path fill="#EE3124" d="M167.18,74.688c0.596,0.188,1.223,0.345,2.069,0.345c1.064,0,1.88-0.297,2.288-0.987
			c0.204-0.345,0.281-0.799,0.281-1.426v-1.49h-0.03c-0.501,0.611-1.285,1.175-2.241,1.175c-1.489,0-2.711-1.238-2.711-3.588
			c0-2.382,1.395-3.808,2.915-3.808c0.939,0,1.661,0.517,2.163,1.003h0.03l0.471-1.003h0.61v7.553c0,0.94-0.156,1.599-0.501,2.116
			c-0.563,0.877-1.583,1.332-3.056,1.332c-0.925,0-1.739-0.22-2.288-0.423L167.18,74.688L167.18,74.688z M171.819,66.648
			c-0.517-0.486-1.19-0.799-1.817-0.799c-1.16,0-1.927,1.113-1.927,2.852c0,1.63,0.674,2.68,1.771,2.68
			c0.815,0,1.473-0.501,1.975-1.097L171.819,66.648L171.819,66.648z"/>
		<path fill="#EE3124" d="M174.171,74.875c1.207-0.486,2.429-1.441,3.149-3.071h-0.312l-2.899-6.691h1.364l2.163,5.814h0.047
			l1.646-5.814h1.332l-1.959,5.61c-1.065,3.009-2.147,4.247-4.138,5.108L174.171,74.875z"/>
	</g>
</g>
</svg>
